<mxfile host="app.diagrams.net" agent="Mozilla/5.0 (Windows NT 10.0; Win64; x64) AppleWebKit/537.36 (KHTML, like Gecko) Chrome/137.0.0.0 Safari/537.36 Edg/137.0.0.0" version="27.1.6">
  <diagram name="Mock  DQ" id="zxiasyiLlYQpNsG5qfQz">
    <mxGraphModel dx="938" dy="610" grid="1" gridSize="10" guides="1" tooltips="1" connect="1" arrows="1" fold="1" page="1" pageScale="1" pageWidth="1100" pageHeight="850" math="0" shadow="0">
      <root>
        <mxCell id="0" />
        <mxCell id="1" parent="0" />
        <mxCell id="aWLP-KI-JhWd6QciNsjT-1" value="Vehicle" style="swimlane;fontStyle=1;align=center;verticalAlign=top;childLayout=stackLayout;horizontal=1;startSize=26;horizontalStack=0;resizeParent=1;resizeLast=0;collapsible=1;marginBottom=0;rounded=0;shadow=0;strokeWidth=1;fontColor=#000000;fontSize=14;" vertex="1" parent="1">
          <mxGeometry x="40" y="480" width="400" height="440" as="geometry">
            <mxRectangle x="340" y="380" width="170" height="26" as="alternateBounds" />
          </mxGeometry>
        </mxCell>
        <mxCell id="aWLP-KI-JhWd6QciNsjT-2" value="&lt;div style=&quot;line-height: 160%;&quot;&gt;&lt;div&gt;&lt;span style=&quot;background-color: transparent;&quot;&gt;&lt;font style=&quot;&quot;&gt;&lt;b style=&quot;&quot;&gt;&lt;font style=&quot;color: light-dark(rgb(255, 25, 0), rgb(255, 15, 15));&quot;&gt;-&amp;nbsp;&lt;/font&gt;&lt;/b&gt;&lt;/font&gt;&lt;/span&gt;&lt;span style=&quot;background-color: transparent; color: light-dark(rgb(0, 0, 0), rgb(237, 237, 237));&quot;&gt; exitTime : DateTime&lt;/span&gt;&lt;/div&gt;&lt;div&gt;&lt;div&gt;&lt;font&gt;&lt;b style=&quot;&quot;&gt;&lt;font style=&quot;color: light-dark(transparent, rgb(255, 0, 0));&quot;&gt;-&amp;nbsp;&lt;/font&gt;&lt;/b&gt;&lt;/font&gt; paidFlag : Boolean&lt;/div&gt;&lt;/div&gt;&lt;div&gt;&lt;font style=&quot;color: light-dark(rgb(255, 25, 0), rgb(255, 0, 0));&quot;&gt;- platenumber : String&lt;/font&gt;&lt;/div&gt;&lt;/div&gt;" style="text;strokeColor=none;fillColor=none;align=left;verticalAlign=top;spacingLeft=4;spacingRight=4;overflow=hidden;rotatable=0;points=[[0,0.5],[1,0.5]];portConstraint=eastwest;whiteSpace=wrap;html=1;fontStyle=0;fontColor=#000000;fontSize=14;" vertex="1" parent="aWLP-KI-JhWd6QciNsjT-1">
          <mxGeometry y="26" width="400" height="134" as="geometry" />
        </mxCell>
        <mxCell id="aWLP-KI-JhWd6QciNsjT-3" value="" style="line;html=1;strokeWidth=1;align=left;verticalAlign=middle;spacingTop=-1;spacingLeft=3;spacingRight=3;rotatable=0;labelPosition=right;points=[];portConstraint=eastwest;fontColor=#000000;fontStyle=0" vertex="1" parent="aWLP-KI-JhWd6QciNsjT-1">
          <mxGeometry y="160" width="400" height="8" as="geometry" />
        </mxCell>
        <mxCell id="aWLP-KI-JhWd6QciNsjT-4" value="&lt;div style=&quot;line-height: 160%;&quot;&gt;&lt;div&gt;&lt;span style=&quot;font-size: 14px; background-color: transparent;&quot;&gt;&lt;font&gt;&lt;b style=&quot;&quot;&gt;&lt;font style=&quot;color: light-dark(rgb(255, 25, 0), rgb(255, 5, 5));&quot;&gt;+Vehicle(platenumber:string)&lt;/font&gt;&lt;/b&gt;&lt;/font&gt;&lt;/span&gt;&lt;/div&gt;&lt;div&gt;&lt;span style=&quot;font-size: 14px; background-color: transparent;&quot;&gt;&lt;font&gt;&lt;b style=&quot;&quot;&gt;&lt;font style=&quot;color: light-dark(rgb(255, 25, 0), rgb(255, 5, 5));&quot;&gt;+&amp;nbsp;&lt;/font&gt;&lt;/b&gt;&lt;/font&gt;&lt;/span&gt;&lt;span style=&quot;font-size: 14px; background-color: transparent; color: light-dark(rgb(0, 0, 0), rgb(237, 237, 237));&quot;&gt;&amp;nbsp;&lt;/span&gt;&lt;span style=&quot;font-size: 14px; background-color: transparent; color: light-dark(rgb(0, 0, 0), rgb(237, 237, 237));&quot;&gt;getPlateNumber() : String&lt;/span&gt;&lt;/div&gt;&lt;div&gt;&lt;font style=&quot;font-size: 14px;&quot;&gt;&lt;font&gt;&lt;b style=&quot;&quot;&gt;&lt;font style=&quot;color: light-dark(rgb(0, 0, 0), rgb(235, 10, 10));&quot;&gt;+&amp;nbsp;&lt;/font&gt;&lt;/b&gt;&lt;/font&gt; getEntryTime&lt;span style=&quot;color: light-dark(rgb(0, 0, 0), rgb(237, 237, 237)); background-color: transparent;&quot;&gt;() :&amp;nbsp;&lt;/span&gt;&lt;span style=&quot;background-color: transparent; color: light-dark(rgb(0, 0, 0), rgb(237, 237, 237));&quot;&gt;DateTime&lt;/span&gt;&lt;/font&gt;&lt;/div&gt;&lt;div&gt;&lt;font style=&quot;font-size: 14px; color: light-dark(rgb(255, 25, 0), rgb(255, 0, 0));&quot;&gt;&lt;span style=&quot;background-color: transparent;&quot;&gt;+ setEntryTime(): DateTime&lt;/span&gt;&lt;/font&gt;&lt;/div&gt;&lt;div&gt;&lt;div style=&quot;&quot;&gt;&lt;span style=&quot;background-color: transparent; font-size: 14px; color: rgb(0, 0, 0);&quot;&gt;&lt;font style=&quot;&quot;&gt;&lt;b style=&quot;&quot;&gt;&lt;font style=&quot;color: light-dark(rgb(255, 25, 0), rgb(255, 5, 5));&quot;&gt;+&amp;nbsp;&lt;/font&gt;&lt;/b&gt;&lt;/font&gt;&lt;/span&gt;&lt;span style=&quot;background-color: transparent; color: rgb(0, 0, 0); font-size: 14px;&quot;&gt; getPaidFlag&lt;/span&gt;&lt;span style=&quot;background-color: transparent; color: light-dark(rgb(0, 0, 0), rgb(237, 237, 237)); font-size: 14px;&quot;&gt;() :&amp;nbsp;&lt;/span&gt;&lt;span style=&quot;background-color: transparent; color: light-dark(rgb(0, 0, 0), rgb(237, 237, 237)); font-size: 14px;&quot;&gt;Boolean&lt;/span&gt;&lt;/div&gt;&lt;/div&gt;&lt;div&gt;&lt;font style=&quot;font-size: 14px;&quot;&gt;&lt;font&gt;&lt;b style=&quot;&quot;&gt;&lt;font style=&quot;color: light-dark(rgb(255, 25, 0), rgb(255, 0, 0));&quot;&gt;+&lt;/font&gt;&lt;font style=&quot;color: light-dark(transparent, rgb(255, 0, 0));&quot;&gt;&amp;nbsp;&lt;/font&gt;&lt;/b&gt;&lt;/font&gt; setPaidFlag&lt;span style=&quot;color: light-dark(rgb(0, 0, 0), rgb(237, 237, 237)); background-color: transparent;&quot;&gt;(&lt;/span&gt;&lt;span style=&quot;background-color: transparent; color: light-dark(rgb(0, 0, 0), rgb(237, 237, 237));&quot;&gt;value: Boolean&lt;/span&gt;&lt;span style=&quot;background-color: transparent; color: light-dark(rgb(0, 0, 0), rgb(237, 237, 237));&quot;&gt;) :&amp;nbsp;&lt;/span&gt;&lt;span style=&quot;background-color: transparent; color: light-dark(rgb(0, 0, 0), rgb(237, 237, 237));&quot;&gt;void&lt;/span&gt;&lt;/font&gt;&lt;/div&gt;&lt;div&gt;&lt;br&gt;&lt;/div&gt;&lt;/div&gt;" style="text;strokeColor=none;fillColor=none;align=left;verticalAlign=top;spacingLeft=4;spacingRight=4;overflow=hidden;rotatable=0;points=[[0,0.5],[1,0.5]];portConstraint=eastwest;whiteSpace=wrap;html=1;fontStyle=0;fontColor=#000000;fontSize=15;" vertex="1" parent="aWLP-KI-JhWd6QciNsjT-1">
          <mxGeometry y="168" width="400" height="272" as="geometry" />
        </mxCell>
        <mxCell id="aWLP-KI-JhWd6QciNsjT-5" value="SECTION" style="rounded=0;whiteSpace=wrap;html=1;align=center;movable=1;resizable=1;rotatable=1;deletable=1;editable=1;locked=0;connectable=1;fillColor=#008a00;strokeColor=#005700;fontColor=#ffffff;fontStyle=1" vertex="1" parent="1">
          <mxGeometry x="40" y="40" width="80" height="40" as="geometry" />
        </mxCell>
        <mxCell id="aWLP-KI-JhWd6QciNsjT-6" value="S##" style="rounded=0;whiteSpace=wrap;html=1;movable=1;resizable=1;rotatable=1;deletable=1;editable=1;locked=0;connectable=1;fillColor=#d5e8d4;strokeColor=#82b366;" vertex="1" parent="1">
          <mxGeometry x="120" y="40" width="80" height="40" as="geometry" />
        </mxCell>
        <mxCell id="aWLP-KI-JhWd6QciNsjT-7" value="NAME" style="rounded=0;whiteSpace=wrap;html=1;movable=1;resizable=1;rotatable=1;deletable=1;editable=1;locked=0;connectable=1;fillColor=#008a00;fontColor=#ffffff;strokeColor=#005700;fontStyle=1" vertex="1" parent="1">
          <mxGeometry x="240" y="40" width="80" height="40" as="geometry" />
        </mxCell>
        <mxCell id="aWLP-KI-JhWd6QciNsjT-8" value="Gutierrez, Lean Aldriann D." style="rounded=0;whiteSpace=wrap;html=1;movable=1;resizable=1;rotatable=1;deletable=1;editable=1;locked=0;connectable=1;fillColor=#d5e8d4;strokeColor=#82b366;align=left;spacingLeft=5;" vertex="1" parent="1">
          <mxGeometry x="320" y="40" width="720" height="40" as="geometry" />
        </mxCell>
        <mxCell id="aWLP-KI-JhWd6QciNsjT-9" value="&lt;div style=&quot;line-height: 130%;&quot;&gt;&lt;div&gt;&lt;ul&gt;&lt;li&gt;You need to &lt;b&gt;make your own copy first&lt;/b&gt;&amp;nbsp;via File &amp;gt; Make a Copy &amp;gt; Open in New Window&lt;/li&gt;&lt;li&gt;Complete the UML class diagram by providing the missing access modifiers, attributes, constructors, methods, and relationships based on the specifications.&lt;/li&gt;&lt;li&gt;For the parts that are already given,&lt;/li&gt;&lt;ul&gt;&lt;li&gt;DO NOT modify the data types and/or the parameters&lt;/li&gt;&lt;li&gt;DO NOT change/move the position of the classes&lt;/li&gt;&lt;/ul&gt;&lt;li&gt;&lt;span style=&quot;background-color: transparent;&quot;&gt;&lt;font style=&quot;color: light-dark(rgb(0, 0, 0), rgb(237, 237, 237));&quot;&gt;Please use&lt;/font&gt;&lt;font style=&quot;color: light-dark(rgb(255, 25, 0), rgb(237, 237, 237));&quot;&gt; &lt;/font&gt;&lt;b style=&quot;&quot;&gt;&lt;font style=&quot;color: light-dark(rgb(255, 25, 0), rgb(237, 237, 237));&quot;&gt;RED FONT for ALL your answers&lt;/font&gt;&lt;/b&gt;&lt;/span&gt;&lt;/li&gt;&lt;/ul&gt;&lt;/div&gt;&lt;/div&gt;" style="rounded=1;whiteSpace=wrap;html=1;fillColor=#dae8fc;strokeColor=#6c8ebf;align=left;spacing=12;fontSize=14;fontStyle=0;textShadow=0;labelBorderColor=none;arcSize=9;spacingTop=4;fontColor=#000000;" vertex="1" parent="1">
          <mxGeometry x="320" y="100" width="640" height="140" as="geometry" />
        </mxCell>
        <mxCell id="aWLP-KI-JhWd6QciNsjT-10" value="PaymentTransaction" style="swimlane;fontStyle=1;align=center;verticalAlign=top;childLayout=stackLayout;horizontal=1;startSize=26;horizontalStack=0;resizeParent=1;resizeLast=0;collapsible=1;marginBottom=0;rounded=0;shadow=0;strokeWidth=1;fontColor=#000000;fontSize=14;" vertex="1" parent="1">
          <mxGeometry x="600" y="350" width="400" height="320" as="geometry">
            <mxRectangle x="340" y="380" width="170" height="26" as="alternateBounds" />
          </mxGeometry>
        </mxCell>
        <mxCell id="aWLP-KI-JhWd6QciNsjT-11" value="&lt;div style=&quot;line-height: 160%;&quot;&gt;&lt;div&gt;&lt;font color=&quot;#ff1900&quot;&gt;&lt;b&gt;-&amp;nbsp;&lt;/b&gt;&lt;/font&gt; vehicle : Vehicle&lt;/div&gt;&lt;/div&gt;" style="text;strokeColor=none;fillColor=none;align=left;verticalAlign=top;spacingLeft=4;spacingRight=4;overflow=hidden;rotatable=0;points=[[0,0.5],[1,0.5]];portConstraint=eastwest;whiteSpace=wrap;html=1;fontStyle=0;fontColor=#000000;fontSize=14;" vertex="1" parent="aWLP-KI-JhWd6QciNsjT-10">
          <mxGeometry y="26" width="400" height="94" as="geometry" />
        </mxCell>
        <mxCell id="aWLP-KI-JhWd6QciNsjT-12" value="" style="line;html=1;strokeWidth=1;align=left;verticalAlign=middle;spacingTop=-1;spacingLeft=3;spacingRight=3;rotatable=0;labelPosition=right;points=[];portConstraint=eastwest;fontColor=#000000;fontStyle=0" vertex="1" parent="aWLP-KI-JhWd6QciNsjT-10">
          <mxGeometry y="120" width="400" height="8" as="geometry" />
        </mxCell>
        <mxCell id="aWLP-KI-JhWd6QciNsjT-13" value="&lt;div style=&quot;line-height: 160%;&quot;&gt;&lt;div&gt;&lt;font style=&quot;font-size: 14px;&quot;&gt;&lt;font&gt;&lt;b style=&quot;&quot;&gt;&lt;font style=&quot;color: light-dark(rgb(0, 0, 0), rgb(237, 0, 0));&quot;&gt;+&amp;nbsp;&lt;/font&gt;&lt;/b&gt;&lt;/font&gt; Payment(&lt;span style=&quot;background-color: transparent; color: light-dark(rgb(0, 0, 0), rgb(237, 237, 237));&quot;&gt;) : float&lt;/span&gt;&lt;/font&gt;&lt;/div&gt;&lt;div style=&quot;line-height: 160%;&quot;&gt;&lt;span style=&quot;background-color: transparent; color: light-dark(rgb(0, 0, 0), rgb(237, 237, 237));&quot;&gt;&lt;font style=&quot;font-size: 14px;&quot;&gt;&lt;br&gt;&lt;/font&gt;&lt;/span&gt;&lt;/div&gt;&lt;div&gt;&lt;span style=&quot;background-color: transparent; font-size: 14px;&quot;&gt;&lt;font style=&quot;color: light-dark(rgb(255, 25, 0), rgb(255, 0, 0));&quot;&gt;+&lt;/font&gt;&lt;/span&gt;&lt;span style=&quot;background-color: transparent; color: light-dark(rgb(0, 0, 0), rgb(237, 237, 237)); font-size: 14px;&quot;&gt; setPaidAmount&lt;/span&gt;&lt;span style=&quot;background-color: transparent; color: light-dark(rgb(0, 0, 0), rgb(237, 237, 237)); font-size: 14px;&quot;&gt;(&lt;/span&gt;&lt;span style=&quot;background-color: transparent; color: light-dark(rgb(0, 0, 0), rgb(237, 237, 237)); font-size: 14px;&quot;&gt;amount: Double&lt;/span&gt;&lt;span style=&quot;background-color: transparent; color: light-dark(rgb(0, 0, 0), rgb(237, 237, 237)); font-size: 14px;&quot;&gt;) :&amp;nbsp;&lt;/span&gt;&lt;span style=&quot;background-color: transparent; color: light-dark(rgb(0, 0, 0), rgb(237, 237, 237)); font-size: 14px;&quot;&gt;void&lt;/span&gt;&lt;/div&gt;&lt;/div&gt;" style="text;strokeColor=none;fillColor=none;align=left;verticalAlign=top;spacingLeft=4;spacingRight=4;overflow=hidden;rotatable=0;points=[[0,0.5],[1,0.5]];portConstraint=eastwest;whiteSpace=wrap;html=1;fontStyle=0;fontColor=#000000;fontSize=15;" vertex="1" parent="aWLP-KI-JhWd6QciNsjT-10">
          <mxGeometry y="128" width="400" height="192" as="geometry" />
        </mxCell>
        <mxCell id="aWLP-KI-JhWd6QciNsjT-14" value="PaymentMachine" style="swimlane;fontStyle=1;align=center;verticalAlign=top;childLayout=stackLayout;horizontal=1;startSize=26;horizontalStack=0;resizeParent=1;resizeLast=0;collapsible=1;marginBottom=0;rounded=0;shadow=0;strokeWidth=1;fontColor=#000000;fontSize=14;" vertex="1" parent="1">
          <mxGeometry x="1160" y="730" width="400" height="320" as="geometry">
            <mxRectangle x="340" y="380" width="170" height="26" as="alternateBounds" />
          </mxGeometry>
        </mxCell>
        <mxCell id="aWLP-KI-JhWd6QciNsjT-15" value="&lt;div style=&quot;line-height: 160%;&quot;&gt;&lt;div&gt;&lt;font style=&quot;color: light-dark(rgb(255, 25, 0), rgb(255, 0, 0));&quot;&gt;&lt;font&gt;&lt;b style=&quot;&quot;&gt;&amp;nbsp;-&lt;/b&gt;&lt;/font&gt; &lt;/font&gt;transactions : PaymentTransaction[]&lt;/div&gt;&lt;div&gt;&lt;span style=&quot;background-color: transparent;&quot;&gt;&lt;font&gt;&lt;b style=&quot;&quot;&gt;&lt;font style=&quot;color: light-dark(rgb(255, 25, 0), rgb(255, 0, 0));&quot;&gt;&amp;nbsp;-&lt;/font&gt;&lt;/b&gt;&lt;/font&gt;&lt;/span&gt;&lt;span style=&quot;background-color: transparent;&quot;&gt;&lt;font style=&quot;color: light-dark(rgb(255, 25, 0), rgb(255, 0, 0));&quot;&gt; &lt;/font&gt;&lt;/span&gt;&lt;span style=&quot;background-color: transparent; color: light-dark(rgb(0, 0, 0), rgb(237, 237, 237));&quot;&gt;levelLocation: Integer&lt;/span&gt;&lt;/div&gt;&lt;/div&gt;" style="text;strokeColor=none;fillColor=none;align=left;verticalAlign=top;spacingLeft=4;spacingRight=4;overflow=hidden;rotatable=0;points=[[0,0.5],[1,0.5]];portConstraint=eastwest;whiteSpace=wrap;html=1;fontStyle=0;fontColor=#000000;fontSize=14;" vertex="1" parent="aWLP-KI-JhWd6QciNsjT-14">
          <mxGeometry y="26" width="400" height="84" as="geometry" />
        </mxCell>
        <mxCell id="aWLP-KI-JhWd6QciNsjT-16" value="" style="line;html=1;strokeWidth=1;align=left;verticalAlign=middle;spacingTop=-1;spacingLeft=3;spacingRight=3;rotatable=0;labelPosition=right;points=[];portConstraint=eastwest;fontColor=#000000;fontStyle=0" vertex="1" parent="aWLP-KI-JhWd6QciNsjT-14">
          <mxGeometry y="110" width="400" height="8" as="geometry" />
        </mxCell>
        <mxCell id="aWLP-KI-JhWd6QciNsjT-17" value="&lt;div style=&quot;line-height: 160%;&quot;&gt;&lt;div&gt;&lt;font style=&quot;font-size: 14px;&quot;&gt;&lt;font&gt;&lt;b style=&quot;&quot;&gt;&lt;font style=&quot;color: light-dark(rgb(255, 25, 0), rgb(255, 0, 0));&quot;&gt;&amp;nbsp;+&lt;/font&gt;&lt;/b&gt;&lt;/font&gt; PaymentMachine(&lt;span style=&quot;background-color: transparent; color: light-dark(rgb(0, 0, 0), rgb(237, 237, 237));&quot;&gt;)&lt;/span&gt;&lt;/font&gt;&lt;/div&gt;&lt;div&gt;&lt;font style=&quot;font-size: 14px;&quot;&gt;&lt;div style=&quot;font-size: 15px;&quot;&gt;&lt;b style=&quot;background-color: transparent; color: light-dark(rgb(0, 0, 0), rgb(237, 237, 237)); font-size: 14px;&quot;&gt;&lt;font style=&quot;color: rgb(255, 25, 0);&quot;&gt;&lt;br&gt;&lt;/font&gt;&lt;/b&gt;&lt;/div&gt;&lt;div style=&quot;font-size: 15px;&quot;&gt;&lt;span style=&quot;background-color: transparent; font-size: 14px;&quot;&gt;&lt;font&gt;&lt;b style=&quot;&quot;&gt;&lt;font style=&quot;color: light-dark(rgb(255, 25, 0), rgb(255, 0, 0));&quot;&gt;&amp;nbsp;+&lt;/font&gt;&lt;/b&gt;&lt;/font&gt;&lt;/span&gt;&lt;span style=&quot;background-color: transparent; color: light-dark(rgb(0, 0, 0), rgb(237, 237, 237)); font-size: 14px;&quot;&gt; setLocation&lt;/span&gt;&lt;span style=&quot;background-color: transparent; color: light-dark(rgb(0, 0, 0), rgb(237, 237, 237)); font-size: 14px;&quot;&gt;(&lt;/span&gt;&lt;span style=&quot;background-color: transparent; color: light-dark(rgb(0, 0, 0), rgb(237, 237, 237));&quot;&gt;&lt;span style=&quot;font-size: 14px;&quot;&gt;levelLocation: Integer&lt;font&gt;&amp;nbsp;:&amp;nbsp;&lt;/font&gt;&lt;/span&gt;&lt;/span&gt;&lt;span style=&quot;background-color: transparent; color: light-dark(rgb(0, 0, 0), rgb(237, 237, 237)); font-size: 14px;&quot;&gt;void&lt;/span&gt;&lt;/div&gt;&lt;/font&gt;&lt;/div&gt;&lt;div style=&quot;&quot;&gt;&lt;div&gt;&lt;div&gt;&lt;/div&gt;&lt;/div&gt;&lt;/div&gt;&lt;/div&gt;" style="text;strokeColor=none;fillColor=none;align=left;verticalAlign=top;spacingLeft=4;spacingRight=4;overflow=hidden;rotatable=0;points=[[0,0.5],[1,0.5]];portConstraint=eastwest;whiteSpace=wrap;html=1;fontStyle=0;fontColor=#000000;fontSize=15;" vertex="1" parent="aWLP-KI-JhWd6QciNsjT-14">
          <mxGeometry y="118" width="400" height="202" as="geometry" />
        </mxCell>
        <mxCell id="aWLP-KI-JhWd6QciNsjT-18" value="" style="endArrow=classic;endFill=1;endSize=12;html=1;rounded=0;strokeWidth=3;strokeColor=#000000;entryX=0.5;entryY=0;entryDx=0;entryDy=0;exitX=0.75;exitY=0;exitDx=0;exitDy=0;edgeStyle=orthogonalEdgeStyle;" edge="1" parent="1" source="aWLP-KI-JhWd6QciNsjT-14" target="aWLP-KI-JhWd6QciNsjT-1">
          <mxGeometry width="160" relative="1" as="geometry">
            <mxPoint x="240" y="270" as="sourcePoint" />
            <mxPoint x="240" y="410" as="targetPoint" />
            <Array as="points">
              <mxPoint x="1460" y="300" />
              <mxPoint x="240" y="300" />
            </Array>
          </mxGeometry>
        </mxCell>
        <mxCell id="aWLP-KI-JhWd6QciNsjT-19" value="Pays Parking Fee" style="edgeLabel;html=1;align=center;verticalAlign=middle;resizable=0;points=[];fontSize=14;fontColor=#000000;fontStyle=1" connectable="0" vertex="1" parent="aWLP-KI-JhWd6QciNsjT-18">
          <mxGeometry x="-0.0611" relative="1" as="geometry">
            <mxPoint x="-428" y="-13" as="offset" />
          </mxGeometry>
        </mxCell>
        <mxCell id="aWLP-KI-JhWd6QciNsjT-20" value="ParkingSlot" style="swimlane;fontStyle=1;align=center;verticalAlign=top;childLayout=stackLayout;horizontal=1;startSize=26;horizontalStack=0;resizeParent=1;resizeLast=0;collapsible=1;marginBottom=0;rounded=0;shadow=0;strokeWidth=1;fontColor=#000000;fontSize=14;" vertex="1" parent="1">
          <mxGeometry x="40" y="1090" width="400" height="360" as="geometry">
            <mxRectangle x="340" y="380" width="170" height="26" as="alternateBounds" />
          </mxGeometry>
        </mxCell>
        <mxCell id="aWLP-KI-JhWd6QciNsjT-21" value="&lt;div style=&quot;line-height: 160%;&quot;&gt;&lt;div&gt;&lt;font style=&quot;background-color: transparent;&quot;&gt;&lt;b&gt;&lt;font style=&quot;color: light-dark(rgb(255, 25, 0), rgb(255, 0, 0));&quot;&gt;-&lt;/font&gt;&amp;nbsp;&lt;/b&gt;&lt;/font&gt;&lt;span style=&quot;background-color: transparent; color: light-dark(rgb(0, 0, 0), rgb(237, 237, 237));&quot;&gt; vacantFlag : Boolean&lt;/span&gt;&lt;/div&gt;&lt;div&gt;&lt;div&gt;&lt;font&gt;&lt;b style=&quot;&quot;&gt;&lt;font color=&quot;rgba(0, 0, 0, 0)&quot; style=&quot;color: light-dark(rgb(255, 25, 0), rgb(255, 0, 0));&quot;&gt;-&lt;/font&gt;&lt;font style=&quot;color: light-dark(rgb(255, 25, 0), rgb(255, 0, 0));&quot;&gt;&amp;nbsp;&lt;/font&gt;&lt;/b&gt;&lt;/font&gt; vehicle : Vehicle&lt;/div&gt;&lt;/div&gt;&lt;/div&gt;" style="text;strokeColor=none;fillColor=none;align=left;verticalAlign=top;spacingLeft=4;spacingRight=4;overflow=hidden;rotatable=0;points=[[0,0.5],[1,0.5]];portConstraint=eastwest;whiteSpace=wrap;html=1;fontStyle=0;fontColor=#000000;fontSize=14;" vertex="1" parent="aWLP-KI-JhWd6QciNsjT-20">
          <mxGeometry y="26" width="400" height="94" as="geometry" />
        </mxCell>
        <mxCell id="aWLP-KI-JhWd6QciNsjT-22" value="" style="line;html=1;strokeWidth=1;align=left;verticalAlign=middle;spacingTop=-1;spacingLeft=3;spacingRight=3;rotatable=0;labelPosition=right;points=[];portConstraint=eastwest;fontColor=#000000;fontStyle=0" vertex="1" parent="aWLP-KI-JhWd6QciNsjT-20">
          <mxGeometry y="120" width="400" height="8" as="geometry" />
        </mxCell>
        <mxCell id="aWLP-KI-JhWd6QciNsjT-23" value="&lt;div style=&quot;line-height: 160%;&quot;&gt;&lt;div&gt;&lt;span style=&quot;font-size: 14px; background-color: transparent;&quot;&gt;&lt;font&gt;&lt;b style=&quot;&quot;&gt;&lt;font style=&quot;color: light-dark(rgb(255, 25, 0), rgb(211, 38, 18));&quot;&gt;+&lt;/font&gt;&lt;font style=&quot;color: light-dark(rgb(255, 25, 0), rgb(255, 0, 0));&quot;&gt;&amp;nbsp;&lt;/font&gt;&lt;/b&gt;&lt;/font&gt;&lt;/span&gt;&lt;span style=&quot;font-size: 14px; background-color: transparent; color: light-dark(rgb(0, 0, 0), rgb(237, 237, 237));&quot;&gt;&amp;nbsp;&lt;/span&gt;&lt;span style=&quot;font-size: 14px; background-color: transparent; color: light-dark(rgb(0, 0, 0), rgb(237, 237, 237));&quot;&gt;getSlotNumber() : Integer&lt;/span&gt;&lt;/div&gt;&lt;div&gt;&lt;font style=&quot;font-size: 14px;&quot;&gt;&lt;font&gt;&lt;b style=&quot;&quot;&gt;&lt;font style=&quot;color: light-dark(rgb(255, 25, 0), rgb(255, 0, 0));&quot;&gt;+&amp;nbsp;&lt;/font&gt;&lt;/b&gt;&lt;/font&gt; setSlotNumber&lt;span style=&quot;color: light-dark(rgb(0, 0, 0), rgb(237, 237, 237)); background-color: transparent;&quot;&gt;(number: Integer) :&amp;nbsp;&lt;/span&gt;&lt;span style=&quot;background-color: transparent; color: light-dark(rgb(0, 0, 0), rgb(237, 237, 237));&quot;&gt;Integer&lt;/span&gt;&lt;/font&gt;&lt;/div&gt;&lt;div&gt;&lt;div style=&quot;&quot;&gt;&lt;br&gt;&lt;/div&gt;&lt;/div&gt;&lt;div style=&quot;&quot;&gt;&lt;div&gt;&lt;span style=&quot;background-color: transparent; font-size: 14px; color: rgb(0, 0, 0);&quot;&gt;&lt;font&gt;&lt;b style=&quot;&quot;&gt;&lt;font style=&quot;color: light-dark(rgb(255, 25, 0), rgb(255, 0, 0));&quot;&gt;&amp;nbsp;+&lt;/font&gt;&lt;/b&gt;&lt;/font&gt;&lt;/span&gt;&lt;span style=&quot;background-color: transparent; color: rgb(0, 0, 0); font-size: 14px;&quot;&gt; isVacant&lt;/span&gt;&lt;span style=&quot;background-color: transparent; color: light-dark(rgb(0, 0, 0), rgb(237, 237, 237)); font-size: 14px;&quot;&gt;() :&amp;nbsp;&lt;/span&gt;&lt;span style=&quot;background-color: transparent; color: light-dark(rgb(0, 0, 0), rgb(237, 237, 237)); font-size: 14px;&quot;&gt;Boolean&lt;/span&gt;&lt;/div&gt;&lt;/div&gt;&lt;div&gt;&lt;font style=&quot;font-size: 14px;&quot;&gt;&lt;font&gt;&lt;b style=&quot;&quot;&gt;&lt;font style=&quot;color: light-dark(rgb(0, 0, 0), rgb(255, 0, 0));&quot;&gt;&amp;nbsp;&lt;/font&gt;&lt;font style=&quot;color: light-dark(rgb(0, 0, 0), rgb(255, 0, 0));&quot;&gt;+&lt;/font&gt;&lt;/b&gt;&lt;/font&gt;&lt;font style=&quot;color: light-dark(rgb(0, 0, 0), rgb(255, 0, 0));&quot;&gt; &lt;/font&gt;vacate&lt;span style=&quot;color: light-dark(rgb(0, 0, 0), rgb(237, 237, 237)); background-color: transparent;&quot;&gt;(&lt;/span&gt;&lt;span style=&quot;background-color: transparent; color: light-dark(rgb(0, 0, 0), rgb(237, 237, 237));&quot;&gt;) :&amp;nbsp;&lt;/span&gt;&lt;span style=&quot;background-color: transparent; color: light-dark(rgb(0, 0, 0), rgb(237, 237, 237));&quot;&gt;void&lt;/span&gt;&lt;/font&gt;&lt;/div&gt;&lt;div&gt;&lt;font style=&quot;font-size: 14px; color: light-dark(rgb(255, 25, 0), rgb(255, 0, 0));&quot;&gt;&lt;span style=&quot;background-color: transparent;&quot;&gt;+ park(vehicle: Vehicle): void&lt;/span&gt;&lt;/font&gt;&lt;/div&gt;&lt;/div&gt;" style="text;strokeColor=none;fillColor=none;align=left;verticalAlign=top;spacingLeft=4;spacingRight=4;overflow=hidden;rotatable=0;points=[[0,0.5],[1,0.5]];portConstraint=eastwest;whiteSpace=wrap;html=1;fontStyle=0;fontColor=#000000;fontSize=15;" vertex="1" parent="aWLP-KI-JhWd6QciNsjT-20">
          <mxGeometry y="128" width="400" height="232" as="geometry" />
        </mxCell>
        <mxCell id="aWLP-KI-JhWd6QciNsjT-24" value="ParkingLevel" style="swimlane;fontStyle=1;align=center;verticalAlign=top;childLayout=stackLayout;horizontal=1;startSize=26;horizontalStack=0;resizeParent=1;resizeLast=0;collapsible=1;marginBottom=0;rounded=0;shadow=0;strokeWidth=1;fontColor=#000000;fontSize=14;" vertex="1" parent="1">
          <mxGeometry x="600" y="1260" width="400" height="444" as="geometry">
            <mxRectangle x="340" y="380" width="170" height="26" as="alternateBounds" />
          </mxGeometry>
        </mxCell>
        <mxCell id="aWLP-KI-JhWd6QciNsjT-25" value="&lt;div style=&quot;line-height: 160%;&quot;&gt;&lt;div&gt;&lt;font&gt;&lt;b style=&quot;&quot;&gt;&lt;font style=&quot;color: light-dark(rgb(255, 25, 0), rgb(255, 0, 0));&quot;&gt;-parkingSlots : ParkingSlots[]&lt;/font&gt;&lt;/b&gt;&lt;/font&gt;&lt;/div&gt;&lt;div&gt;&lt;span style=&quot;background-color: transparent;&quot;&gt;&lt;font style=&quot;color: light-dark(rgb(255, 25, 0), rgb(255, 0, 0));&quot;&gt;-&lt;/font&gt;&lt;/span&gt;&lt;span style=&quot;background-color: transparent; color: light-dark(rgb(0, 0, 0), rgb(237, 237, 237));&quot;&gt; levelNumber : Integer&lt;/span&gt;&lt;/div&gt;&lt;div&gt;&lt;font style=&quot;color: light-dark(rgb(255, 25, 0), rgb(255, 0, 0));&quot;&gt;&lt;span style=&quot;background-color: transparent;&quot;&gt;&lt;font&gt;&lt;b style=&quot;&quot;&gt;&lt;font&gt;-&amp;nbsp;&lt;/font&gt;&lt;/b&gt;&lt;/font&gt;&lt;/span&gt;&lt;span style=&quot;background-color: transparent;&quot;&gt; &lt;/span&gt;&lt;/font&gt;&lt;span style=&quot;background-color: transparent; color: light-dark(rgb(0, 0, 0), rgb(237, 237, 237));&quot;&gt;paymentMachines : PaymentMachine[]&lt;/span&gt;&lt;/div&gt;&lt;/div&gt;" style="text;strokeColor=none;fillColor=none;align=left;verticalAlign=top;spacingLeft=4;spacingRight=4;overflow=hidden;rotatable=0;points=[[0,0.5],[1,0.5]];portConstraint=eastwest;whiteSpace=wrap;html=1;fontStyle=0;fontColor=#000000;fontSize=14;" vertex="1" parent="aWLP-KI-JhWd6QciNsjT-24">
          <mxGeometry y="26" width="400" height="94" as="geometry" />
        </mxCell>
        <mxCell id="aWLP-KI-JhWd6QciNsjT-26" value="" style="line;html=1;strokeWidth=1;align=left;verticalAlign=middle;spacingTop=-1;spacingLeft=3;spacingRight=3;rotatable=0;labelPosition=right;points=[];portConstraint=eastwest;fontColor=#000000;fontStyle=0" vertex="1" parent="aWLP-KI-JhWd6QciNsjT-24">
          <mxGeometry y="120" width="400" height="8" as="geometry" />
        </mxCell>
        <mxCell id="aWLP-KI-JhWd6QciNsjT-27" value="&lt;div style=&quot;line-height: 160%;&quot;&gt;&lt;div&gt;&lt;span style=&quot;background-color: transparent; font-size: 14px;&quot;&gt;&lt;font style=&quot;color: light-dark(rgb(255, 25, 0), rgb(255, 0, 0));&quot;&gt;&lt;b style=&quot;&quot;&gt;+ ParkingLevel(levelNumber : int, InitialSlots: int)&lt;/b&gt;&lt;/font&gt;&lt;/span&gt;&lt;/div&gt;&lt;div&gt;&lt;span style=&quot;background-color: transparent; font-size: 14px;&quot;&gt;&lt;font style=&quot;color: light-dark(rgb(255, 25, 0), rgb(255, 0, 0));&quot;&gt;&lt;b style=&quot;&quot;&gt;+&amp;nbsp;&lt;/b&gt;&lt;/font&gt;&lt;/span&gt;&lt;span style=&quot;background-color: transparent; color: light-dark(rgb(0, 0, 0), rgb(237, 237, 237)); font-size: 14px;&quot;&gt;&amp;nbsp;&lt;/span&gt;&lt;span style=&quot;background-color: transparent; color: light-dark(rgb(0, 0, 0), rgb(237, 237, 237)); font-size: 14px;&quot;&gt;getParkingSlots() : ParkingSlot[]&lt;/span&gt;&lt;/div&gt;&lt;div&gt;&lt;font style=&quot;font-size: 14px;&quot;&gt;&lt;font style=&quot;color: light-dark(rgb(255, 25, 0), rgb(255, 0, 0));&quot;&gt;&lt;b style=&quot;&quot;&gt;+&amp;nbsp;&lt;/b&gt;&lt;/font&gt; getPaymentMachines&lt;span style=&quot;color: light-dark(rgb(0, 0, 0), rgb(237, 237, 237)); background-color: transparent;&quot;&gt;&amp;nbsp;:&amp;nbsp;&lt;/span&gt;&lt;span style=&quot;background-color: transparent; color: light-dark(rgb(0, 0, 0), rgb(237, 237, 237));&quot;&gt;PayementMachine[]&lt;/span&gt;&lt;/font&gt;&lt;/div&gt;&lt;div&gt;&lt;div style=&quot;&quot;&gt;&lt;br&gt;&lt;/div&gt;&lt;/div&gt;&lt;div&gt;&lt;font style=&quot;font-size: 14px;&quot;&gt;&lt;font style=&quot;color: light-dark(rgb(255, 25, 0), rgb(255, 0, 0));&quot;&gt;&lt;b style=&quot;&quot;&gt;+&lt;/b&gt;&lt;/font&gt; addPaymentMachine&lt;span style=&quot;color: light-dark(rgb(0, 0, 0), rgb(237, 237, 237)); background-color: transparent;&quot;&gt;(&lt;/span&gt;&lt;span style=&quot;background-color: transparent; color: light-dark(rgb(0, 0, 0), rgb(237, 237, 237));&quot;&gt;machine: PaymentMachine&lt;/span&gt;&lt;span style=&quot;background-color: transparent; color: light-dark(rgb(0, 0, 0), rgb(237, 237, 237));&quot;&gt;) :&amp;nbsp;&lt;/span&gt;&lt;span style=&quot;background-color: transparent; color: light-dark(rgb(0, 0, 0), rgb(237, 237, 237));&quot;&gt;void&lt;/span&gt;&lt;/font&gt;&lt;/div&gt;&lt;/div&gt;" style="text;strokeColor=none;fillColor=none;align=left;verticalAlign=top;spacingLeft=4;spacingRight=4;overflow=hidden;rotatable=0;points=[[0,0.5],[1,0.5]];portConstraint=eastwest;whiteSpace=wrap;html=1;fontStyle=0;fontColor=#000000;fontSize=15;" vertex="1" parent="aWLP-KI-JhWd6QciNsjT-24">
          <mxGeometry y="128" width="400" height="222" as="geometry" />
        </mxCell>
        <mxCell id="aWLP-KI-JhWd6QciNsjT-28" value="ParkingBuilding" style="swimlane;fontStyle=1;align=center;verticalAlign=top;childLayout=stackLayout;horizontal=1;startSize=26;horizontalStack=0;resizeParent=1;resizeLast=0;collapsible=1;marginBottom=0;rounded=0;shadow=0;strokeWidth=1;fontColor=light-dark(#000000,#FFFFFF);fontSize=14;" vertex="1" parent="1">
          <mxGeometry x="600" y="710" width="400" height="400" as="geometry">
            <mxRectangle x="340" y="380" width="170" height="26" as="alternateBounds" />
          </mxGeometry>
        </mxCell>
        <mxCell id="aWLP-KI-JhWd6QciNsjT-29" value="&lt;div style=&quot;line-height: 160%;&quot;&gt;&lt;div style=&quot;line-height: 160%;&quot;&gt;&lt;font style=&quot;color: light-dark(transparent, rgb(255, 0, 0));&quot;&gt;&lt;font&gt;-&lt;/font&gt; &lt;/font&gt;parkingLevels : ParkingLevel[]&lt;/div&gt;&lt;/div&gt;" style="text;strokeColor=none;fillColor=none;align=left;verticalAlign=top;spacingLeft=4;spacingRight=4;overflow=hidden;rotatable=0;points=[[0,0.5],[1,0.5]];portConstraint=eastwest;whiteSpace=wrap;html=1;fontStyle=0;fontColor=#000000;fontSize=14;" vertex="1" parent="aWLP-KI-JhWd6QciNsjT-28">
          <mxGeometry y="26" width="400" height="94" as="geometry" />
        </mxCell>
        <mxCell id="aWLP-KI-JhWd6QciNsjT-30" value="" style="line;html=1;strokeWidth=1;align=left;verticalAlign=middle;spacingTop=-1;spacingLeft=3;spacingRight=3;rotatable=0;labelPosition=right;points=[];portConstraint=eastwest;fontColor=#000000;fontStyle=0" vertex="1" parent="aWLP-KI-JhWd6QciNsjT-28">
          <mxGeometry y="120" width="400" height="8" as="geometry" />
        </mxCell>
        <mxCell id="aWLP-KI-JhWd6QciNsjT-31" value="&lt;div style=&quot;line-height: 160%;&quot;&gt;&lt;div&gt;&lt;font style=&quot;font-size: 14px; color: rgb(0, 0, 0);&quot;&gt;&lt;font&gt;+&lt;/font&gt; ParkingBuilding(&lt;font&gt;levelLimit: Integer&lt;/font&gt;&lt;span style=&quot;background-color: transparent;&quot;&gt;)&lt;/span&gt;&lt;/font&gt;&lt;/div&gt;&lt;div style=&quot;line-height: 160%;&quot;&gt;&lt;span style=&quot;background-color: transparent; color: light-dark(rgb(0, 0, 0), rgb(237, 237, 237));&quot;&gt;&lt;font style=&quot;font-size: 14px;&quot;&gt;&lt;br&gt;&lt;/font&gt;&lt;/span&gt;&lt;/div&gt;&lt;div&gt;&lt;span style=&quot;font-size: 14px; background-color: transparent;&quot;&gt;&lt;font&gt;&lt;b style=&quot;&quot;&gt;&lt;font style=&quot;color: light-dark(rgb(255, 25, 0), rgb(255, 0, 0));&quot;&gt;&amp;nbsp;+&lt;/font&gt;&lt;/b&gt;&lt;/font&gt;&lt;/span&gt;&lt;span style=&quot;font-size: 14px; background-color: transparent; color: light-dark(rgb(0, 0, 0), rgb(237, 237, 237));&quot;&gt;&amp;nbsp;getParkingLevels&lt;/span&gt;&lt;span style=&quot;font-size: 14px; background-color: transparent; color: light-dark(rgb(0, 0, 0), rgb(237, 237, 237));&quot;&gt;() :&amp;nbsp;&lt;/span&gt;&lt;span style=&quot;font-size: 14px; background-color: transparent; color: light-dark(rgb(0, 0, 0), rgb(237, 237, 237));&quot;&gt;ParkingLevel[]&lt;/span&gt;&lt;/div&gt;&lt;div&gt;&lt;div&gt;&lt;div&gt;&lt;font style=&quot;color: rgb(255, 25, 0);&quot;&gt;&lt;span style=&quot;font-size: 14px; color: rgb(0, 0, 0);&quot;&gt;&lt;font&gt;&lt;b style=&quot;&quot;&gt;&lt;font style=&quot;color: light-dark(rgb(255, 25, 0), rgb(255, 0, 0));&quot;&gt;&amp;nbsp;+&lt;/font&gt;&lt;/b&gt;&lt;/font&gt;&lt;/span&gt;&lt;span style=&quot;color: rgb(0, 0, 0); font-size: 14px;&quot;&gt;&amp;nbsp;getLevelLimit&lt;/span&gt;&lt;span style=&quot;color: light-dark(rgb(0, 0, 0), rgb(237, 237, 237)); font-size: 14px; background-color: transparent;&quot;&gt;() :&amp;nbsp;&lt;/span&gt;&lt;span style=&quot;color: light-dark(rgb(0, 0, 0), rgb(237, 237, 237)); font-size: 14px; background-color: transparent;&quot;&gt;Integer&lt;/span&gt;&lt;/font&gt;&lt;/div&gt;&lt;/div&gt;&lt;/div&gt;&lt;div&gt;&lt;div style=&quot;&quot;&gt;&lt;br&gt;&lt;/div&gt;&lt;/div&gt;&lt;div&gt;&lt;font style=&quot;font-size: 14px;&quot;&gt;&lt;div style=&quot;font-size: 15px;&quot;&gt;&lt;font style=&quot;font-size: 14px;&quot;&gt;&lt;font&gt;&lt;b style=&quot;&quot;&gt;&lt;font style=&quot;color: light-dark(rgb(255, 25, 0), rgb(255, 0, 0));&quot;&gt;+&amp;nbsp;&lt;/font&gt;&lt;/b&gt;&lt;/font&gt;&amp;nbsp;&lt;span style=&quot;background-color: transparent; color: light-dark(rgb(0, 0, 0), rgb(237, 237, 237));&quot;&gt;addParkingLevel() : Boolean&lt;/span&gt;&lt;/font&gt;&lt;/div&gt;&lt;div style=&quot;font-size: 15px;&quot;&gt;&lt;font style=&quot;font-size: 14px;&quot;&gt;&lt;font style=&quot;color: light-dark(rgb(255, 25, 0), rgb(255, 0, 0));&quot;&gt;+&lt;/font&gt;&amp;nbsp;&lt;span style=&quot;color: light-dark(rgb(0, 0, 0), rgb(237, 237, 237)); background-color: transparent;&quot;&gt;getAvailableSlots() : Integer&lt;/span&gt;&lt;/font&gt;&lt;/div&gt;&lt;div style=&quot;font-size: 15px;&quot;&gt;&lt;font style=&quot;font-size: 14px;&quot;&gt;&lt;span style=&quot;color: light-dark(rgb(0, 0, 0), rgb(237, 237, 237)); background-color: transparent;&quot;&gt;&lt;br&gt;&lt;/span&gt;&lt;/font&gt;&lt;/div&gt;&lt;div style=&quot;font-size: 15px;&quot;&gt;&lt;font style=&quot;font-size: 14px; color: light-dark(rgb(255, 25, 0), rgb(255, 0, 0));&quot;&gt;&lt;span style=&quot;background-color: transparent;&quot;&gt;+ enter(vehicle: Vehicle) : void&lt;/span&gt;&lt;/font&gt;&lt;/div&gt;&lt;div style=&quot;font-size: 15px;&quot;&gt;&lt;font style=&quot;font-size: 14px;&quot;&gt;&lt;div&gt;&lt;div style=&quot;font-size: 15px;&quot;&gt;&lt;div style=&quot;font-size: 14px;&quot;&gt;&lt;/div&gt;&lt;/div&gt;&lt;/div&gt;&lt;/font&gt;&lt;/div&gt;&lt;/font&gt;&lt;/div&gt;&lt;/div&gt;" style="text;strokeColor=none;fillColor=none;align=left;verticalAlign=top;spacingLeft=4;spacingRight=4;overflow=hidden;rotatable=0;points=[[0,0.5],[1,0.5]];portConstraint=eastwest;whiteSpace=wrap;html=1;fontStyle=0;fontColor=#000000;fontSize=15;" vertex="1" parent="aWLP-KI-JhWd6QciNsjT-28">
          <mxGeometry y="128" width="400" height="272" as="geometry" />
        </mxCell>
        <mxCell id="aWLP-KI-JhWd6QciNsjT-32" style="edgeStyle=orthogonalEdgeStyle;rounded=0;orthogonalLoop=1;jettySize=auto;html=1;exitX=1;exitY=0.5;exitDx=0;exitDy=0;entryX=-0.005;entryY=0.46;entryDx=0;entryDy=0;entryPerimeter=0;strokeColor=light-dark(#000000,#FF0000);" edge="1" parent="1" source="aWLP-KI-JhWd6QciNsjT-23" target="aWLP-KI-JhWd6QciNsjT-31">
          <mxGeometry relative="1" as="geometry" />
        </mxCell>
        <mxCell id="aWLP-KI-JhWd6QciNsjT-35" value="" style="endArrow=block;startArrow=block;endFill=1;startFill=1;html=1;rounded=0;entryX=1;entryY=0.5;entryDx=0;entryDy=0;strokeColor=light-dark(#FF1900,#FF0000);" edge="1" parent="1" source="aWLP-KI-JhWd6QciNsjT-2" target="aWLP-KI-JhWd6QciNsjT-37">
          <mxGeometry width="160" relative="1" as="geometry">
            <mxPoint x="450" y="740" as="sourcePoint" />
            <mxPoint x="610" y="740" as="targetPoint" />
            <Array as="points" />
          </mxGeometry>
        </mxCell>
        <mxCell id="aWLP-KI-JhWd6QciNsjT-37" value="One vehicle per payment" style="text;html=1;align=center;verticalAlign=middle;whiteSpace=wrap;rounded=0;" vertex="1" parent="1">
          <mxGeometry x="450" y="558" width="140" height="30" as="geometry" />
        </mxCell>
        <mxCell id="aWLP-KI-JhWd6QciNsjT-38" value="ParkingBuilding has array of Parking Levels" style="text;html=1;align=center;verticalAlign=middle;whiteSpace=wrap;rounded=0;" vertex="1" parent="1">
          <mxGeometry x="1040" y="1180" width="130" height="30" as="geometry" />
        </mxCell>
        <mxCell id="aWLP-KI-JhWd6QciNsjT-43" value="1" style="endArrow=open;html=1;endSize=12;startArrow=diamondThin;startSize=14;startFill=1;edgeStyle=orthogonalEdgeStyle;align=left;verticalAlign=bottom;rounded=0;exitX=0.283;exitY=0.002;exitDx=0;exitDy=0;exitPerimeter=0;entryX=0.995;entryY=0.008;entryDx=0;entryDy=0;entryPerimeter=0;strokeColor=light-dark(#FF1900,#FF0000);" edge="1" parent="1" source="aWLP-KI-JhWd6QciNsjT-14" target="aWLP-KI-JhWd6QciNsjT-13">
          <mxGeometry x="-1" y="3" relative="1" as="geometry">
            <mxPoint x="1100" y="570" as="sourcePoint" />
            <mxPoint x="1260" y="570" as="targetPoint" />
            <mxPoint as="offset" />
          </mxGeometry>
        </mxCell>
        <mxCell id="aWLP-KI-JhWd6QciNsjT-44" value="Payments can only exist within a machine" style="text;html=1;align=center;verticalAlign=middle;whiteSpace=wrap;rounded=0;" vertex="1" parent="1">
          <mxGeometry x="1130" y="450" width="120" height="30" as="geometry" />
        </mxCell>
        <mxCell id="aWLP-KI-JhWd6QciNsjT-45" value="1" style="endArrow=open;html=1;endSize=12;startArrow=diamondThin;startSize=14;startFill=1;edgeStyle=orthogonalEdgeStyle;align=left;verticalAlign=bottom;rounded=0;exitX=0.99;exitY=0.463;exitDx=0;exitDy=0;exitPerimeter=0;entryX=1.005;entryY=0.214;entryDx=0;entryDy=0;entryPerimeter=0;strokeColor=light-dark(#FF1900,#FF0000);" edge="1" parent="1" source="aWLP-KI-JhWd6QciNsjT-31" target="aWLP-KI-JhWd6QciNsjT-27">
          <mxGeometry x="-1" y="3" relative="1" as="geometry">
            <mxPoint x="980" y="1160" as="sourcePoint" />
            <mxPoint x="1140" y="1160" as="targetPoint" />
            <Array as="points">
              <mxPoint x="1110" y="964" />
              <mxPoint x="1110" y="1436" />
            </Array>
          </mxGeometry>
        </mxCell>
        <mxCell id="aWLP-KI-JhWd6QciNsjT-46" value="1" style="endArrow=open;html=1;endSize=12;startArrow=diamondThin;startSize=14;startFill=1;edgeStyle=orthogonalEdgeStyle;align=left;verticalAlign=bottom;rounded=0;exitX=0.001;exitY=0.401;exitDx=0;exitDy=0;exitPerimeter=0;entryX=1.011;entryY=0.716;entryDx=0;entryDy=0;entryPerimeter=0;strokeColor=light-dark(#FF1900,#FF0000);" edge="1" parent="1" source="aWLP-KI-JhWd6QciNsjT-27" target="aWLP-KI-JhWd6QciNsjT-23">
          <mxGeometry x="-1" y="3" relative="1" as="geometry">
            <mxPoint x="390" y="1560" as="sourcePoint" />
            <mxPoint x="550" y="1560" as="targetPoint" />
          </mxGeometry>
        </mxCell>
        <mxCell id="aWLP-KI-JhWd6QciNsjT-47" value="1..*" style="text;html=1;align=center;verticalAlign=middle;whiteSpace=wrap;rounded=0;" vertex="1" parent="1">
          <mxGeometry x="1030" y="1388" width="60" height="30" as="geometry" />
        </mxCell>
        <mxCell id="aWLP-KI-JhWd6QciNsjT-48" value="1..*" style="text;html=1;align=center;verticalAlign=middle;whiteSpace=wrap;rounded=0;" vertex="1" parent="1">
          <mxGeometry x="450" y="1358" width="60" height="30" as="geometry" />
        </mxCell>
        <mxCell id="aWLP-KI-JhWd6QciNsjT-49" value="1" style="endArrow=open;html=1;endSize=12;startArrow=diamondThin;startSize=14;startFill=0;edgeStyle=orthogonalEdgeStyle;align=left;verticalAlign=bottom;rounded=0;exitX=0.441;exitY=-0.01;exitDx=0;exitDy=0;exitPerimeter=0;entryX=0.44;entryY=0.998;entryDx=0;entryDy=0;entryPerimeter=0;strokeColor=light-dark(#FF1900,#FF0000);" edge="1" parent="1" source="aWLP-KI-JhWd6QciNsjT-20" target="aWLP-KI-JhWd6QciNsjT-4">
          <mxGeometry x="-1" y="3" relative="1" as="geometry">
            <mxPoint x="200" y="1030" as="sourcePoint" />
            <mxPoint x="360" y="1030" as="targetPoint" />
          </mxGeometry>
        </mxCell>
      </root>
    </mxGraphModel>
  </diagram>
</mxfile>
